<?xml version="1.0" encoding="UTF-8"?><svg id="Layer_2" xmlns="http://www.w3.org/2000/svg" viewBox="0 0 231.48 177.65"><g id="Layer_1-2"><path d="M170.87,55.21c0-.76-.49-1.44-1.22-1.67l-18.62-5.91c-1.16-5.44-3.57-10.55-7.04-14.93l3.79-7.32c.35-.68.22-1.5-.32-2.04-.54-.54-1.36-.67-2.04-.32l-7.32,3.79c-4.37-3.46-9.48-5.87-14.92-7.03l-5.9-18.56c-.23-.73-.91-1.22-1.67-1.22s-1.44.49-1.67,1.22l-5.89,18.56c-5.45,1.16-10.57,3.57-14.95,7.04l-7.33-3.79c-.68-.35-1.5-.22-2.04.32s-.67,1.37-.32,2.04l3.79,7.33c-3.47,4.37-5.88,9.49-7.04,14.94l-18.56,5.9c-.73.23-1.22.91-1.22,1.67s.49,1.44,1.22,1.67l18.56,5.89c1.16,5.44,3.57,10.56,7.04,14.93l-3.79,7.32c-.35.68-.22,1.5.32,2.04.34.34.78.51,1.24.51.27,0,.55-.06.8-.2l7.32-3.79c4.38,3.47,9.5,5.89,14.94,7.04l5.89,18.56c.23.73.91,1.22,1.67,1.22s1.44-.49,1.67-1.22l5.89-18.56c5.45-1.16,10.57-3.57,14.94-7.04l7.31,3.79c.25.13.53.2.8.2.45,0,.9-.18,1.24-.51.54-.54.67-1.37.32-2.04l-3.79-7.31c3.47-4.37,5.88-9.48,7.04-14.92l18.62-5.91c.73-.23,1.22-.91,1.22-1.67ZM147.13,46.39l-5.82-1.85c-1.03-.29-2.07-.5-3.11-.65l4.01-7.75c2.23,3.11,3.89,6.58,4.92,10.25ZM142.14,28.66l-1.78,3.44s0,0,0,0l-5.97,11.54c-3.15.05-6.25.69-9.13,1.91,1.2-2.87,1.86-5.97,1.9-9.14l14.99-7.76ZM117.4,59.52c.38.39.78.76,1.18,1.11,2.74,3.17,4.44,7.05,4.94,11.1-3.54-2.84-5.77-7-6.16-11.55.02-.22.03-.44.04-.66ZM117.37,50.32c.02-.29.03-.58.07-.86.01-.11.03-.22.05-.33.08-.5.17-1,.29-1.49,0-.04.02-.08.03-.12.13-.51.29-1.02.47-1.51.04-.11.08-.22.12-.32.19-.49.39-.96.62-1.43.04-.07.08-.14.11-.21.22-.43.46-.85.71-1.25.04-.07.09-.14.13-.22.28-.43.59-.85.91-1.26.07-.09.14-.17.21-.26.34-.41.69-.81,1.06-1.18.02-.02.04-.03.05-.05.37-.36.75-.7,1.15-1.03.05-.04.09-.08.14-.12-.5,4.09-2.21,7.96-4.9,11.09-.41.36-.81.74-1.2,1.14,0-.2-.02-.39-.03-.58ZM121.06,58.15c-.35-.4-.72-.78-1.09-1.16.22,0,.43-.01.65-.03,4.53.4,8.71,2.63,11.53,6.14-4.06-.51-7.92-2.21-11.08-4.96ZM120.59,53.44c-.2-.01-.4-.03-.6-.04.37-.37.72-.75,1.07-1.14,3.16-2.75,7.03-4.45,11.07-4.97-2.83,3.53-6.99,5.75-11.54,6.14ZM106.82,23.68l-1.85,5.82c-.22.7.01,1.46.59,1.91.58.45,1.37.5,1.99.11l8-4.9,8.15,4.91c.28.17.59.25.9.25.38,0,.77-.13,1.08-.38.57-.45.8-1.21.58-1.9l-1.85-5.82c3.67,1.03,7.14,2.68,10.24,4.91l-10.07,5.21s0,0,0,0l-.57.3c-3.78,2.14-6.68,5.38-8.42,9.19-1.74-3.81-4.65-7.07-8.47-9.22l-.51-.26s0,0,0,0l-10.08-5.22c3.11-2.23,6.59-3.89,10.27-4.92ZM110.01,52.09c.39.45.8.89,1.23,1.32-.21,0-.41.02-.62.04-4.55-.39-8.72-2.62-11.54-6.14,3.99.49,7.79,2.13,10.93,4.79ZM107.72,38.69s.1.08.14.12c.41.34.82.69,1.19,1.07,0,0,0,0,.01.01.37.37.72.77,1.06,1.18.07.09.14.17.21.26.32.41.62.82.91,1.26.05.08.09.15.14.23.26.41.49.83.71,1.25.03.07.07.13.1.19.23.47.43.94.62,1.43.04.1.08.21.12.32.18.5.34,1,.47,1.52,0,.03.01.07.02.1.12.49.22.99.29,1.5.02.1.03.21.05.31.04.29.05.58.07.87-.01.17-.02.35-.03.52-.42-.42-.86-.83-1.31-1.22-2.62-3.1-4.29-6.9-4.79-10.93ZM111.26,56.99c-.43.43-.84.87-1.23,1.32-3.15,2.67-6.96,4.32-10.95,4.81,2.83-3.53,6.97-5.76,11.51-6.16.23.02.45.02.68.03ZM112.48,60.83c.46-.4.9-.81,1.34-1.25,0,.2.02.4.04.6-.38,4.56-2.62,8.73-6.14,11.55.49-3.98,2.13-7.77,4.77-10.9ZM104.06,36.43c.04,3.16.7,6.25,1.89,9.11-2.88-1.21-5.98-1.84-9.12-1.88l-5.97-11.53v-.02s-1.79-3.45-1.79-3.45l15,7.77ZM89,36.15l4.02,7.76c-1.04.15-2.08.36-3.12.65l-5.82,1.85c1.03-3.67,2.69-7.15,4.92-10.26ZM67.93,55.21l22.97-7.3c1.28-.36,2.58-.58,3.88-.69,2.13,3.56,5.26,6.31,8.92,7.98-3.65,1.67-6.77,4.42-8.92,8-1.28-.11-2.55-.33-3.81-.68l-23.03-7.32ZM84.08,64.01l5.88,1.87c1.01.28,2.03.49,3.05.64l-4.01,7.75c-2.23-3.11-3.89-6.58-4.91-10.25ZM89.07,81.74l1.78-3.43s.01-.02.01-.03l5.96-11.51c3.14-.04,6.24-.68,9.12-1.88-1.2,2.87-1.83,5.96-1.88,9.09l-15,7.77ZM96.54,81.81l7.77-4.02c.15,1.04.36,2.09.65,3.12l1.85,5.82c-3.68-1.03-7.15-2.69-10.27-4.92ZM122.92,79.85l-7.32,23.03-7.3-22.97c-.36-1.28-.58-2.58-.69-3.88,3.57-2.13,6.32-5.27,7.98-8.93,1.66,3.65,4.41,6.78,7.99,8.93-.11,1.28-.33,2.56-.68,3.82ZM124.41,86.73l1.87-5.88c.28-1.01.49-2.03.64-3.06l7.76,4.02c-3.11,2.23-6.59,3.89-10.26,4.92ZM138.71,79.96s0,0-.01,0l-11.53-5.97c-.04-3.15-.68-6.25-1.89-9.13,2.87,1.21,5.97,1.86,9.11,1.9l5.98,11.54s0,0,0,0l1.78,3.44-3.44-1.78ZM142.21,74.27l-4.02-7.75c1.06-.15,2.12-.37,3.17-.66l5.76-1.83c-1.03,3.67-2.69,7.14-4.91,10.24ZM149.23,59.69c-.15.03-.3.07-.44.14l-8.42,2.68c-1.3.36-2.62.59-3.93.69-2.13-3.57-5.27-6.33-8.93-8,3.65-1.66,6.77-4.41,8.92-7.99,1.3.11,2.59.33,3.87.68l8.57,2.72c.06.02.12.04.18.06l14.28,4.54-14.11,4.48Z" style="fill:#419ca0;"/><path d="M15.18,146.4c-.46.7-1.07,1.25-1.82,1.65s-1.6.6-2.56.6c-1.4,0-2.57-.33-3.51-.97-.94-.65-1.63-1.52-2.07-2.61-.44-1.09-.66-2.31-.66-3.67s.22-2.58.66-3.67c.44-1.09,1.13-1.96,2.07-2.61.94-.65,2.11-.97,3.51-.97.9,0,1.71.17,2.44.52.73.35,1.33.83,1.8,1.44s.8,1.33.98,2.14h4.47c-.26-1.54-.81-2.91-1.65-4.12-.84-1.21-1.95-2.16-3.33-2.85-1.38-.69-2.95-1.04-4.71-1.04-2.28,0-4.24.5-5.87,1.49-1.63.99-2.86,2.33-3.69,4.02-.83,1.69-1.25,3.58-1.25,5.66s.42,3.96,1.25,5.66c.83,1.69,2.06,3.03,3.69,4.02,1.63.99,3.58,1.49,5.87,1.49,1.82,0,3.43-.37,4.84-1.11,1.41-.74,2.53-1.76,3.36-3.06s1.35-2.76,1.55-4.38h-4.44c-.16.9-.47,1.7-.93,2.4Z" style="fill:#419ca0;"/><rect x="61.95" y="130.59" width="4.38" height="21.6" style="fill:#419ca0;"/><path d="M124.75,143.81c-.45-.67-1.09-1.2-1.93-1.58,1.08-.6,1.91-1.35,2.47-2.25.57-.9.86-1.9.86-3,0-1.96-.65-3.51-1.94-4.67-1.29-1.15-3.21-1.72-5.77-1.72h-9.81v21.6h4.38v-8.37h4.77c.72,0,1.32.12,1.8.36.48.24.86.6,1.14,1.08.28.48.48,1.1.6,1.86l.72,5.07h4.5l-.9-5.94c-.14-.96-.44-1.77-.89-2.44ZM120.68,139.59c-.63.52-1.6.78-2.9.78h-4.77v-6.18h4.77c1.3,0,2.26.26,2.9.78.63.52.94,1.29.94,2.31s-.31,1.79-.94,2.31Z" style="fill:#419ca0;"/><rect x="167.73" y="130.59" width="4.38" height="21.6" style="fill:#419ca0;"/><path d="M230.75,142.86c-.49-.84-1.33-1.55-2.52-2.13-1.19-.58-2.84-1.05-4.94-1.41-1.36-.26-2.4-.53-3.1-.81-.71-.28-1.19-.59-1.44-.95-.25-.35-.38-.79-.38-1.33,0-.76.33-1.36,1-1.8s1.56-.66,2.69-.66c1.5,0,2.62.3,3.38.92s1.15,1.54,1.21,2.8h4.26c-.08-2.28-.87-4.06-2.37-5.34-1.5-1.28-3.66-1.92-6.48-1.92-1.64,0-3.08.26-4.32.78-1.24.52-2.2,1.25-2.87,2.17s-1,1.99-1,3.17c0,1.3.28,2.39.84,3.27.56.88,1.41,1.6,2.54,2.15s2.61.99,4.46,1.3c1.44.28,2.54.57,3.3.86s1.28.6,1.54.94c.27.34.41.76.41,1.26,0,.92-.38,1.63-1.14,2.13-.76.5-1.77.75-3.03.75-1.52,0-2.74-.3-3.66-.92s-1.4-1.66-1.44-3.14h-4.32c.02,1.6.41,2.97,1.17,4.11.76,1.14,1.83,2.01,3.21,2.59,1.38.59,3.01.89,4.89.89,1.74,0,3.28-.25,4.61-.77,1.33-.51,2.37-1.26,3.12-2.26s1.12-2.2,1.12-3.6c0-1.2-.25-2.22-.74-3.06Z" style="fill:#419ca0;"/><path d="M49.36,165.6c-.63-.4-1.37-.59-2.19-.59s-1.58.2-2.21.59c-.63.4-1.12.95-1.46,1.65-.34.7-.51,1.5-.51,2.38s.17,1.68.51,2.38c.34.7.83,1.25,1.46,1.65.63.4,1.37.59,2.21.59.96,0,1.8-.26,2.5-.78.7-.52,1.2-1.22,1.5-2.11h-1.62c-.19.48-.5.85-.92,1.11-.42.27-.91.4-1.46.4-.5,0-.93-.11-1.29-.34-.36-.23-.65-.54-.86-.94-.21-.4-.34-.88-.4-1.42h6.71v-.51c0-.9-.17-1.7-.51-2.41-.34-.71-.83-1.26-1.46-1.66ZM44.65,168.83c.11-.75.39-1.34.82-1.79s1-.66,1.7-.66,1.25.22,1.68.66.7,1.04.82,1.79h-5.02Z" style="fill:#419ca0;"/><path d="M55.45,162.49h-1.56v2.72h-1.62v1.34h1.62v5.44c0,.49.07.88.22,1.18.15.3.37.52.68.66.31.14.72.21,1.24.21h1.77v-1.34h-1.45c-.32,0-.55-.07-.69-.21s-.21-.37-.21-.69v-5.25h2.35v-1.34h-2.35v-2.72Z" style="fill:#419ca0;"/><path d="M65.4,165.45c-.47-.3-1.06-.45-1.78-.45-.59,0-1.12.12-1.58.37s-.86.58-1.17,1v-4.57h-1.58v12.24h1.58v-4.93c0-.73.14-1.29.42-1.69s.61-.67.97-.81c.36-.14.7-.2,1-.2.65,0,1.13.18,1.46.54.33.36.49.86.49,1.48v5.61h1.55v-5.76c0-.59-.11-1.13-.33-1.63-.22-.5-.57-.9-1.04-1.2Z" style="fill:#419ca0;"/><rect x="68.81" y="165.21" width="1.56" height="8.84" style="fill:#419ca0;"/><rect x="68.81" y="161.81" width="1.56" height="1.79" style="fill:#419ca0;"/><path d="M74.83,166.81c.37-.27.83-.41,1.38-.41.59,0,1.08.17,1.47.49.39.33.65.78.77,1.34h1.62c-.14-.99-.54-1.77-1.22-2.35-.67-.58-1.55-.88-2.64-.88-.83,0-1.56.2-2.18.59-.63.4-1.12.95-1.46,1.65-.35.7-.52,1.5-.52,2.38s.17,1.68.52,2.38c.34.7.83,1.25,1.46,1.65s1.36.59,2.18.59c1.04,0,1.91-.3,2.61-.9.7-.6,1.11-1.39,1.25-2.38h-1.62c-.11.59-.37,1.05-.76,1.39-.39.33-.89.5-1.49.5-.54,0-1-.14-1.38-.41-.37-.27-.66-.65-.86-1.13s-.3-1.05-.3-1.69.1-1.21.3-1.69.49-.86.86-1.13Z" style="fill:#419ca0;"/><path d="M85.18,165c-1.07,0-1.95.24-2.65.72-.7.48-1.07,1.22-1.11,2.22h1.56c.03-.58.25-.99.66-1.23.41-.24.92-.37,1.53-.37s1.09.11,1.4.32c.31.22.47.57.47,1.05v.65l-2.74.51c-.69.14-1.28.32-1.75.55-.48.23-.84.53-1.09.89-.25.36-.37.8-.37,1.31,0,.84.29,1.49.86,1.94.57.45,1.35.68,2.34.68.58,0,1.1-.1,1.57-.3.47-.2.89-.53,1.25-.99v1.09h1.46v-6.48c0-.8-.28-1.43-.85-1.89-.57-.45-1.42-.68-2.55-.68ZM87.05,170.56c0,.52-.12.96-.37,1.32-.25.36-.57.62-.97.79s-.82.25-1.26.25c-.58,0-1.01-.12-1.3-.35s-.43-.56-.43-.98c0-.45.15-.78.44-.97.29-.19.76-.36,1.41-.49l2.48-.51v.93Z" style="fill:#419ca0;"/><path d="M92.19,172.49c-.14-.14-.21-.37-.21-.69v-10h-1.58v10.18c0,.49.07.88.22,1.18.15.3.38.52.69.66.31.14.73.21,1.25.21h1.51v-1.34h-1.19c-.32,0-.55-.07-.69-.21Z" style="fill:#419ca0;"/><rect x="98.92" y="161.81" width="1.56" height="1.79" style="fill:#419ca0;"/><rect x="98.92" y="165.21" width="1.56" height="8.84" style="fill:#419ca0;"/><path d="M108.6,165.45c-.47-.3-1.06-.45-1.78-.45-.61,0-1.16.13-1.63.4-.48.27-.87.62-1.19,1.06v-1.26h-1.51v8.84h1.58v-4.93c0-.73.14-1.29.42-1.69s.61-.67.97-.81c.36-.14.7-.2,1-.2.65,0,1.13.18,1.46.54.33.36.49.86.49,1.48v5.61h1.55v-5.76c0-.59-.11-1.13-.33-1.63-.22-.5-.57-.9-1.04-1.2Z" style="fill:#419ca0;"/><path d="M114.49,162.49h-1.56v2.72h-1.62v1.34h1.62v5.44c0,.49.07.88.22,1.18.15.3.37.52.68.66.31.14.72.21,1.24.21h1.77v-1.34h-1.45c-.32,0-.55-.07-.69-.21s-.21-.37-.21-.69v-5.25h2.35v-1.34h-2.35v-2.72Z" style="fill:#419ca0;"/><path d="M124.31,165.6c-.63-.4-1.37-.59-2.19-.59s-1.58.2-2.21.59c-.63.4-1.12.95-1.46,1.65-.34.7-.51,1.5-.51,2.38s.17,1.68.51,2.38c.34.7.83,1.25,1.46,1.65.63.4,1.37.59,2.21.59.96,0,1.8-.26,2.5-.78.7-.52,1.2-1.22,1.5-2.11h-1.62c-.19.48-.5.85-.92,1.11-.42.27-.91.4-1.46.4-.5,0-.93-.11-1.29-.34-.36-.23-.65-.54-.86-.94-.21-.4-.34-.88-.4-1.42h6.71v-.51c0-.9-.17-1.7-.51-2.41-.34-.71-.83-1.26-1.46-1.66ZM119.61,168.83c.11-.75.39-1.34.82-1.79s1-.66,1.7-.66,1.25.22,1.68.66.7,1.04.82,1.79h-5.02Z" style="fill:#419ca0;"/><path d="M129.73,172.49c-.14-.14-.21-.37-.21-.69v-10h-1.58v10.18c0,.49.07.88.22,1.18.15.3.38.52.69.66.31.14.73.21,1.25.21h1.51v-1.34h-1.19c-.32,0-.55-.07-.69-.21Z" style="fill:#419ca0;"/><path d="M134.88,172.49c-.14-.14-.21-.37-.21-.69v-10h-1.58v10.18c0,.49.07.88.22,1.18.15.3.38.52.69.66.31.14.73.21,1.25.21h1.51v-1.34h-1.19c-.32,0-.55-.07-.69-.21Z" style="fill:#419ca0;"/><rect x="138.22" y="165.21" width="1.56" height="8.84" style="fill:#419ca0;"/><rect x="138.22" y="161.81" width="1.56" height="1.79" style="fill:#419ca0;"/><path d="M148.44,166.53c-.33-.49-.74-.86-1.23-1.13s-1.07-.4-1.73-.4c-.86,0-1.6.2-2.21.59-.61.4-1.08.94-1.39,1.63-.32.69-.48,1.49-.48,2.38s.16,1.67.48,2.37.78,1.24,1.39,1.63c.61.39,1.35.59,2.21.59.63,0,1.2-.12,1.68-.37.49-.24.89-.59,1.21-1.04v1.02c0,.95-.25,1.61-.75,1.98-.5.37-1.14.55-1.92.55-.66,0-1.18-.13-1.58-.39-.4-.26-.64-.67-.73-1.24h-1.55c.09.93.46,1.65,1.11,2.17s1.57.77,2.75.77c.82,0,1.54-.14,2.18-.41.63-.27,1.14-.69,1.5-1.27s.55-1.29.55-2.17v-8.6h-1.5v1.33ZM148.1,171.29c-.2.48-.5.86-.9,1.13-.4.27-.89.41-1.48.41s-1.08-.14-1.49-.41c-.4-.27-.7-.65-.9-1.13-.2-.48-.3-1.04-.3-1.67s.1-1.21.3-1.69c.2-.48.5-.86.9-1.13.4-.27.9-.41,1.49-.41s1.08.14,1.48.41c.4.27.7.65.9,1.13.2.48.31,1.05.31,1.69s-.1,1.19-.31,1.67Z" style="fill:#419ca0;"/><path d="M157.96,165.6c-.63-.4-1.37-.59-2.19-.59s-1.58.2-2.21.59c-.63.4-1.12.95-1.46,1.65s-.51,1.5-.51,2.38.17,1.68.51,2.38c.34.7.83,1.25,1.46,1.65s1.37.59,2.21.59c.96,0,1.8-.26,2.5-.78s1.2-1.22,1.5-2.11h-1.62c-.19.48-.5.85-.92,1.11-.42.27-.91.4-1.46.4-.5,0-.93-.11-1.29-.34s-.65-.54-.86-.94-.34-.88-.4-1.42h6.71v-.51c0-.9-.17-1.7-.51-2.41-.34-.71-.83-1.26-1.46-1.66ZM153.25,168.83c.11-.75.38-1.34.82-1.79s1-.66,1.7-.66,1.25.22,1.68.66c.43.44.7,1.04.82,1.79h-5.01Z" style="fill:#419ca0;"/><path d="M167.69,165.45c-.47-.3-1.06-.45-1.78-.45-.61,0-1.16.13-1.63.4-.48.27-.87.62-1.19,1.06v-1.26h-1.51v8.84h1.58v-4.93c0-.73.14-1.29.42-1.69s.61-.67.97-.81c.36-.14.7-.2,1-.2.65,0,1.13.18,1.46.54.33.36.49.86.49,1.48v5.61h1.55v-5.76c0-.59-.11-1.13-.33-1.63-.22-.5-.57-.9-1.04-1.2Z" style="fill:#419ca0;"/><path d="M173.56,166.81c.37-.27.83-.41,1.38-.41.59,0,1.08.17,1.47.49.39.33.65.78.77,1.34h1.62c-.14-.99-.54-1.77-1.22-2.35-.67-.58-1.55-.88-2.64-.88-.83,0-1.56.2-2.18.59-.63.4-1.12.95-1.46,1.65-.35.7-.52,1.5-.52,2.38s.17,1.68.52,2.38c.34.7.83,1.25,1.46,1.65s1.36.59,2.18.59c1.04,0,1.91-.3,2.61-.9.7-.6,1.11-1.39,1.25-2.38h-1.62c-.11.59-.37,1.05-.76,1.39-.39.33-.89.5-1.49.5-.54,0-1-.14-1.38-.41-.37-.27-.66-.65-.86-1.13s-.3-1.05-.3-1.69.1-1.21.3-1.69.49-.86.86-1.13Z" style="fill:#419ca0;"/><path d="M186.31,165.6c-.63-.4-1.37-.59-2.19-.59s-1.58.2-2.21.59c-.63.4-1.12.95-1.46,1.65-.34.7-.51,1.5-.51,2.38s.17,1.68.51,2.38c.34.7.83,1.25,1.46,1.65.63.4,1.37.59,2.21.59.96,0,1.8-.26,2.5-.78.7-.52,1.2-1.22,1.5-2.11h-1.62c-.19.48-.5.85-.92,1.11-.42.27-.91.4-1.46.4-.5,0-.93-.11-1.29-.34-.36-.23-.65-.54-.86-.94-.21-.4-.34-.88-.4-1.42h6.71v-.51c0-.9-.17-1.7-.51-2.41-.34-.71-.83-1.26-1.46-1.66ZM181.6,168.83c.11-.75.39-1.34.82-1.79s1-.66,1.7-.66,1.25.22,1.68.66.7,1.04.82,1.79h-5.02Z" style="fill:#419ca0;"/></g></svg>